# xmcd
#
# Track frame offsets: 
#        150
#        11236
#        22033
#        34989
#        44354
#        55342
#        66330
#        76319
#        87628
#        99571
#        125108
#        136953
#        148767
#        160191
#        172973
#        184421
#        197064
#        206377
#        221555
#        231181
#        241748
#        251688
#        262593
#        276904
#        292096
#
# Disc length: 4054 seconds
#
# Revision: 0
# Processed by: cddbd v1.5.2PL0 Copyright (c) Steve Scherf et al.
# Submitted via: ExactAudioCopy v0.95b3
#
DISCID=7d0fd419
DTITLE=The Monkees - The Monkees Complete 25 of 28 
DYEAR=1900
DGENRE=
TTITLE0=French Song (alt. mix)
TTITLE1=Good Clean Fun (alt. mix)
TTITLE2=How Can I Tell You (demo)
TTITLE3=If I Knew (demo)
TTITLE4=If I Knew (alt. mix 1)
TTITLE5=If I Knew (alt. mix 2)
TTITLE6=If You Have The Time
TTITLE7=If You Have The Time (alt. mix 1)
TTITLE8=If You Have The Time (alt. mix 2)
TTITLE9=Kool-Aid Ads
TTITLE10=Ladies Aid Society (alt. mix)
TTITLE11=Listen To The Band (single mix mono)
TTITLE12=Listen To The Band (single mix stereo)
TTITLE13=Listen To The Band (alt. mix 1)
TTITLE14=Listen To The Band (alt. mix 2)
TTITLE15=Listen To The Band (4.1 composite)
TTITLE16=Little Girl (alt. mix)
TTITLE17=Little Red Rider
TTITLE18=Looking For The Good Times (alt. mix)
TTITLE19=Michigan Blackhawk
TTITLE20=Mommy And Daddy (original version)
TTITLE21=Mommy And Daddy (alt. mix)
TTITLE22=My Share Of The Sidewalk
TTITLE23=Opening Night (demo)
TTITLE24=Penny Music
EXTD=
EXTT0=
EXTT1=
EXTT2=
EXTT3=
EXTT4=
EXTT5=
EXTT6=
EXTT7=
EXTT8=
EXTT9=
EXTT10=
EXTT11=
EXTT12=
EXTT13=
EXTT14=
EXTT15=
EXTT16=
EXTT17=
EXTT18=
EXTT19=
EXTT20=
EXTT21=
EXTT22=
EXTT23=
EXTT24=
PLAYORDER=
